<svg xmlns="http://www.w3.org/2000/svg" width="232" height="81" viewBox="0 0 232 81">
    <g fill="#2C84D8" fill-rule="evenodd">
        <path d="M2 50h4c1.105 0 2 .895 2 2v29H0V52c0-1.105.895-2 2-2zM18 36h4c1.105 0 2 .895 2 2v43h-8V38c0-1.105.895-2 2-2zM34 0h4c1.105 0 2 .895 2 2v79h-8V2c0-1.105.895-2 2-2zM50 27h4c1.105 0 2 .895 2 2v52h-8V29c0-1.105.895-2 2-2zM66 50h4c1.105 0 2 .895 2 2v29h-8V52c0-1.105.895-2 2-2zM82 45h4c1.105 0 2 .895 2 2v34h-8V47c0-1.105.895-2 2-2zM98 58h4c1.105 0 2 .895 2 2v21h-8V60c0-1.105.895-2 2-2zM114 69h4c1.105 0 2 .895 2 2v10h-8V71c0-1.105.895-2 2-2zM130 66h4c1.105 0 2 .895 2 2v13h-8V68c0-1.105.895-2 2-2zM146 52h4c1.105 0 2 .895 2 2v27h-8V54c0-1.105.895-2 2-2zM162 38h4c1.105 0 2 .895 2 2v41h-8V40c0-1.105.895-2 2-2zM178 40h4c1.105 0 2 .895 2 2v39h-8V42c0-1.105.895-2 2-2zM194 27h4c1.105 0 2 .895 2 2v52h-8V29c0-1.105.895-2 2-2zM210 5h4c1.105 0 2 .895 2 2v74h-8V7c0-1.105.895-2 2-2zM226 59h4c1.105 0 2 .895 2 2v20h-8V61c0-1.105.895-2 2-2z"/>
    </g>
</svg>
